<svg xmlns="http://www.w3.org/2000/svg" width="254" height="70" fill="none"><g clip-path="url(#a)"><path fill="#0278FE" d="M111 2a2 2 0 0 1 2-2h28a2 2 0 0 1 2 2v28a2 2 0 0 1-2 2h-28a2 2 0 0 1-2-2V2Z"/><path fill="#2A2C2F" d="M143 6h-32v2h32V6Z"/><path fill="#2A2C2F" d="M124 6h-2v26h2V6Z"/><path fill="#fff" d="m118.313 69 .838-2.784h4.801L124.79 69h4.262l-4.801-14.545h-5.398L114.052 69h4.261Zm1.733-5.739 1.449-4.8h.114l1.449 4.8h-3.012ZM130.453 69h3.949V64.2h1.363L138.322 69h4.29l-2.955-5.426c1.549-.746 2.472-2.16 2.472-4.176 0-3.097-2.166-4.943-5.398-4.943h-6.278V69Zm3.949-7.87v-3.522h1.392c1.385 0 2.216.54 2.216 1.79 0 1.243-.831 1.733-2.216 1.733h-1.392ZM143.414 57.636h4.375V69h3.892V57.636h4.375v-3.181h-12.642v3.181ZM170.973 59.256h3.991c-.305-2.92-2.954-5-6.392-5-3.92 0-7.102 2.699-7.102 7.5 0 4.602 2.884 7.443 7.131 7.443 3.807 0 6.534-2.33 6.534-6.307v-2.017h-6.449v2.813h2.642c-.035 1.264-.93 2.073-2.699 2.073-2.045 0-3.096-1.505-3.096-4.062 0-2.521 1.136-4.006 3.125-4.006 1.235 0 2.074.569 2.315 1.563ZM180.305 69l.838-2.784h4.802l.838 2.784h4.261l-4.801-14.545h-5.398L176.044 69h4.261Zm1.733-5.739 1.449-4.8h.114l1.449 4.8h-3.012ZM192.445 69h9.83v-3.182h-5.881V54.455h-3.949V69ZM203.871 69h9.829v-3.182h-5.88V54.455h-3.949V69ZM215.297 69h10.454v-3.182h-6.506v-2.5h5.995v-3.182h-5.995v-2.5h6.534v-3.181h-10.482V69ZM227.738 69h3.949V64.2h1.363L235.607 69h4.29l-2.955-5.426c1.549-.746 2.472-2.16 2.472-4.176 0-3.097-2.166-4.943-5.398-4.943h-6.278V69Zm3.949-7.87v-3.522h1.392c1.385 0 2.216.54 2.216 1.79 0 1.243-.831 1.733-2.216 1.733h-1.392ZM239.817 54.455l5.341 9.971V69h3.92v-4.574l5.341-9.971h-4.403l-2.841 5.909h-.114l-2.84-5.91h-4.404ZM108.637 54.455V69h-3.295l-5.256-7.642h-.085V69h-3.949V54.455h3.352l5.171 7.613h.114v-7.613h3.948ZM83.612 69V54.455h10.483v3.181H87.56v2.5h5.994v3.182h-5.994v2.5h6.505V69H83.612ZM69.484 57.636v-3.181h12.642v3.181H77.75V69h-3.892V57.636h-4.375ZM57.44 69V54.455h10.483v3.181h-6.534v2.5h5.994v3.182H61.39v2.5h6.505V69H57.44ZM46.014 69V54.455h3.948v11.363h5.881V69h-9.83ZM32.889 69V54.455h6.278c1.08 0 2.024.213 2.834.639a4.64 4.64 0 0 1 1.89 1.797c.449.771.674 1.673.674 2.706 0 1.041-.232 1.943-.696 2.706a4.571 4.571 0 0 1-1.94 1.76c-.828.413-1.796.619-2.904.619h-3.75v-3.068h2.955c.464 0 .859-.08 1.186-.242.331-.166.584-.4.76-.703.18-.303.27-.66.27-1.072 0-.417-.09-.772-.27-1.066a1.693 1.693 0 0 0-.76-.681c-.327-.162-.722-.242-1.186-.242h-1.392V69h-3.95ZM31.018 54.455V69h-3.95V54.455h3.95ZM13.71 69V54.455h6.278c1.08 0 2.024.196 2.834.59.81.392 1.439.958 1.889 1.697.45.738.675 1.624.675 2.656 0 1.041-.232 1.92-.696 2.635-.46.715-1.106 1.254-1.94 1.619-.828.365-1.796.547-2.904.547h-3.75V61.13h2.954c.464 0 .86-.057 1.186-.17a1.5 1.5 0 0 0 .76-.562c.18-.255.27-.59.27-1.001 0-.417-.09-.755-.27-1.016a1.509 1.509 0 0 0-.76-.582c-.326-.128-.722-.192-1.186-.192h-1.392V69H13.71Zm8.522-6.676L25.87 69h-4.29l-3.551-6.676h4.204ZM-.418 57.636v-3.181h12.641v3.181H7.85V69H3.957V57.636H-.418Z"/></g><defs><clipPath id="a"><path fill="#fff" d="M0 0h254v70H0z"/></clipPath></defs></svg>