<svg width="25" height="24" viewBox="0 0 25 24" fill="none" xmlns="http://www.w3.org/2000/svg">
<g filter="url(#filter0_d_9884_301)">
<mask id="path-1-outside-1_9884_301" maskUnits="userSpaceOnUse" x="-0.385335" y="-2.46588" width="23.8169" height="24.6699" fill="black">
<rect fill="white" x="-0.385335" y="-2.46588" width="23.8169" height="24.6699"/>
<path fill-rule="evenodd" clip-rule="evenodd" d="M9.70706 12.8633L8.22113 12.2205C7.20653 11.7816 5.94422 12.2097 5.39993 13.176L5.52675 12.9509C5.39168 13.1907 5.4664 13.5172 5.69408 13.6794L8.46664 15.6546C8.90617 15.9678 9.7129 16.2885 10.2535 16.3604C10.2535 16.3604 13.4396 16.7073 13.8614 17.3469L14.3954 18.1567L17.7347 15.9547L17.4686 13.7345L19.4044 14.8537L20.2392 14.3032L19.7053 13.4934C19.2835 12.8538 19.2147 10.0086 19.2147 10.0086C19.1883 9.46405 18.9267 8.64674 18.6246 8.18871L16.4035 4.82033C15.8966 4.08453 14.8642 3.89815 14.082 4.41395C13.6906 4.67198 13.573 5.18318 13.819 5.55627L13.9969 5.82605C13.5051 5.08029 12.4726 4.89392 11.6904 5.40971C11.2991 5.66775 11.1814 6.17895 11.4275 6.55203L11.6054 6.82182C11.1136 6.07606 10.0811 5.88969 9.29894 6.40548C8.90762 6.66352 8.78994 7.17471 9.03595 7.5478L9.21385 7.81758C9.13482 7.69773 9.05918 7.6109 8.98465 7.55172L6.4748 4.21561C6.1354 3.76448 5.49795 3.66046 5.03688 3.96449C4.5726 4.27064 4.44847 4.88869 4.75244 5.34967L6.95455 8.68917L9.70706 12.8633ZM15.0155 8.16504L15.8503 7.61454L18.0523 10.9539L17.2175 11.5044L15.0155 8.16504ZM13.3458 9.26604L14.1807 8.71554L16.3827 12.0549L15.5478 12.6054L13.3458 9.26604ZM11.6762 10.367L12.511 9.81654L14.713 13.1559L13.8782 13.7064L11.6762 10.367Z"/>
</mask>
<path fill-rule="evenodd" clip-rule="evenodd" d="M9.70706 12.8633L8.22113 12.2205C7.20653 11.7816 5.94422 12.2097 5.39993 13.176L5.52675 12.9509C5.39168 13.1907 5.4664 13.5172 5.69408 13.6794L8.46664 15.6546C8.90617 15.9678 9.7129 16.2885 10.2535 16.3604C10.2535 16.3604 13.4396 16.7073 13.8614 17.3469L14.3954 18.1567L17.7347 15.9547L17.4686 13.7345L19.4044 14.8537L20.2392 14.3032L19.7053 13.4934C19.2835 12.8538 19.2147 10.0086 19.2147 10.0086C19.1883 9.46405 18.9267 8.64674 18.6246 8.18871L16.4035 4.82033C15.8966 4.08453 14.8642 3.89815 14.082 4.41395C13.6906 4.67198 13.573 5.18318 13.819 5.55627L13.9969 5.82605C13.5051 5.08029 12.4726 4.89392 11.6904 5.40971C11.2991 5.66775 11.1814 6.17895 11.4275 6.55203L11.6054 6.82182C11.1136 6.07606 10.0811 5.88969 9.29894 6.40548C8.90762 6.66352 8.78994 7.17471 9.03595 7.5478L9.21385 7.81758C9.13482 7.69773 9.05918 7.6109 8.98465 7.55172L6.4748 4.21561C6.1354 3.76448 5.49795 3.66046 5.03688 3.96449C4.5726 4.27064 4.44847 4.88869 4.75244 5.34967L6.95455 8.68917L9.70706 12.8633ZM15.0155 8.16504L15.8503 7.61454L18.0523 10.9539L17.2175 11.5044L15.0155 8.16504ZM13.3458 9.26604L14.1807 8.71554L16.3827 12.0549L15.5478 12.6054L13.3458 9.26604ZM11.6762 10.367L12.511 9.81654L14.713 13.1559L13.8782 13.7064L11.6762 10.367Z" fill="white"/>
<path d="M9.70706 12.8633L9.31 13.7811L12.3883 15.1129L10.5419 12.3128L9.70706 12.8633ZM8.22113 12.2205L8.61819 11.3027L8.22113 12.2205ZM5.69408 13.6794L5.11385 14.4939L5.69408 13.6794ZM8.46664 15.6546L9.04687 14.8402L8.46664 15.6546ZM10.2535 16.3604L10.1217 17.3517L10.1335 17.3533L10.1453 17.3545L10.2535 16.3604ZM14.3954 18.1567L13.5606 18.7072L14.1111 19.542L14.9459 18.9915L14.3954 18.1567ZM17.7347 15.9547L18.2852 16.7895L18.8012 16.4493L18.7276 15.8356L17.7347 15.9547ZM17.4686 13.7345L17.9691 12.8688L16.2376 11.8678L16.4757 13.8535L17.4686 13.7345ZM19.4044 14.8537L18.9039 15.7194L19.4389 16.0287L19.9549 15.6885L19.4044 14.8537ZM20.2392 14.3032L20.7897 15.138L21.6246 14.5875L21.0741 13.7527L20.2392 14.3032ZM19.2147 10.0086L20.2144 9.98438L20.2141 9.97229L20.2135 9.96021L19.2147 10.0086ZM16.4035 4.82033L17.2383 4.26983L17.2327 4.26138L17.227 4.25304L16.4035 4.82033ZM8.98465 7.55172L8.18554 8.15291L8.26253 8.25524L8.36282 8.33487L8.98465 7.55172ZM6.4748 4.21561L5.67569 4.8168L5.67569 4.8168L6.4748 4.21561ZM4.75244 5.34967L3.91761 5.90017L4.75244 5.34967ZM15.8503 7.61454L16.6852 7.06404L16.1347 6.2292L15.2998 6.77971L15.8503 7.61454ZM18.0523 10.9539L18.6028 11.7887L19.4377 11.2382L18.8872 10.4034L18.0523 10.9539ZM17.2175 11.5044L16.3827 12.0549L16.9332 12.8897L17.768 12.3392L17.2175 11.5044ZM14.1807 8.71554L15.0155 8.16504L14.465 7.33021L13.6302 7.88071L14.1807 8.71554ZM16.3827 12.0549L16.9332 12.8897L17.768 12.3392L17.2175 11.5044L16.3827 12.0549ZM15.5478 12.6054L14.713 13.1559L15.2635 13.9907L16.0983 13.4402L15.5478 12.6054ZM12.511 9.81654L13.3458 9.26604L12.7953 8.43121L11.9605 8.98171L12.511 9.81654ZM14.713 13.1559L15.2635 13.9907L16.0983 13.4402L15.5478 12.6054L14.713 13.1559ZM13.8782 13.7064L13.0433 14.2569L13.5938 15.0917L14.4287 14.5412L13.8782 13.7064ZM10.1041 11.9455L8.61819 11.3027L7.82407 13.1383L9.31 13.7811L10.1041 11.9455ZM8.61819 11.3027C7.13063 10.6591 5.32241 11.276 4.52864 12.6853L6.27122 13.6668C6.56604 13.1434 7.28244 12.904 7.82407 13.1383L8.61819 11.3027ZM6.27122 13.6668L6.39804 13.4416L4.65546 12.4601L4.52864 12.6853L6.27122 13.6668ZM4.65546 12.4601C4.2641 13.1549 4.47867 14.0414 5.11385 14.4939L6.27431 12.865C6.37728 12.9383 6.42957 13.0357 6.44906 13.1206C6.4685 13.2054 6.46523 13.3224 6.39804 13.4416L4.65546 12.4601ZM5.11385 14.4939L7.88641 16.4691L9.04687 14.8402L6.27431 12.865L5.11385 14.4939ZM7.88641 16.4691C8.45731 16.8758 9.41769 17.2581 10.1217 17.3517L10.3853 15.3691C10.0081 15.319 9.35502 15.0597 9.04687 14.8402L7.88641 16.4691ZM10.2535 16.3604C10.1453 17.3545 10.1452 17.3545 10.1452 17.3545C10.1451 17.3545 10.1451 17.3545 10.1451 17.3545C10.1451 17.3545 10.1451 17.3545 10.1452 17.3545C10.1453 17.3545 10.1456 17.3546 10.1462 17.3546C10.1472 17.3548 10.149 17.355 10.1515 17.3552C10.1565 17.3558 10.1645 17.3567 10.1751 17.3579C10.1964 17.3604 10.2286 17.3641 10.2701 17.3692C10.3533 17.3794 10.4737 17.3947 10.62 17.4151C10.914 17.456 11.306 17.5165 11.7067 17.5951C12.1135 17.6749 12.5006 17.768 12.7961 17.8691C12.9446 17.9199 13.0434 17.9639 13.1003 17.9954C13.1769 18.0379 13.1059 18.0177 13.0266 17.8974L14.6963 16.7964C14.5115 16.5162 14.2487 16.3453 14.0703 16.2464C13.8722 16.1365 13.6529 16.0484 13.4434 15.9768C13.0229 15.8329 12.5344 15.7194 12.0919 15.6325C11.6433 15.5445 11.2125 15.4783 10.8959 15.4342C10.7369 15.412 10.6051 15.3953 10.5124 15.3839C10.466 15.3783 10.4293 15.374 10.4037 15.371C10.3909 15.3696 10.3809 15.3684 10.3738 15.3676C10.3703 15.3672 10.3675 15.3669 10.3655 15.3667C10.3645 15.3666 10.3637 15.3665 10.3631 15.3664C10.3627 15.3664 10.3625 15.3664 10.3623 15.3664C10.3621 15.3663 10.362 15.3663 10.362 15.3663C10.3619 15.3663 10.3618 15.3663 10.2535 16.3604ZM13.0266 17.8974L13.5606 18.7072L15.2302 17.6062L14.6963 16.7964L13.0266 17.8974ZM14.9459 18.9915L18.2852 16.7895L17.1842 15.1198L13.8449 17.3218L14.9459 18.9915ZM18.7276 15.8356L18.4615 13.6155L16.4757 13.8535L16.7418 16.0737L18.7276 15.8356ZM16.9681 14.6002L18.9039 15.7194L19.9049 13.9879L17.9691 12.8688L16.9681 14.6002ZM19.9549 15.6885L20.7897 15.138L19.6887 13.4683L18.8539 14.0188L19.9549 15.6885ZM21.0741 13.7527L20.5401 12.9429L18.8704 14.0439L19.4044 14.8537L21.0741 13.7527ZM20.5401 12.9429C20.5598 12.9728 20.5018 12.865 20.4341 12.4977C20.3765 12.1851 20.3316 11.8045 20.2979 11.4231C20.2645 11.0452 20.2435 10.684 20.2309 10.416C20.2246 10.2825 20.2204 10.1732 20.2179 10.0979C20.2166 10.0602 20.2157 10.0311 20.2151 10.0118C20.2148 10.0021 20.2146 9.99488 20.2145 9.99027C20.2145 9.98796 20.2144 9.9863 20.2144 9.98531C20.2144 9.98482 20.2144 9.98449 20.2144 9.98433C20.2144 9.98426 20.2144 9.98422 20.2144 9.98423C20.2144 9.98423 20.2144 9.98427 20.2144 9.98427C20.2144 9.98432 20.2144 9.98438 19.2147 10.0086C18.215 10.0327 18.215 10.0328 18.215 10.0329C18.215 10.033 18.215 10.0331 18.215 10.0332C18.215 10.0333 18.215 10.0336 18.215 10.0338C18.215 10.0344 18.215 10.0351 18.215 10.0359C18.2151 10.0377 18.2151 10.0401 18.2152 10.0432C18.2154 10.0494 18.2156 10.0582 18.216 10.0696C18.2166 10.0922 18.2176 10.1249 18.219 10.1663C18.2219 10.249 18.2264 10.367 18.2331 10.5102C18.2466 10.7957 18.2691 11.1858 18.3057 11.5992C18.3419 12.009 18.3934 12.4596 18.4673 12.8604C18.5311 13.2065 18.6398 13.6942 18.8704 14.0439L20.5401 12.9429ZM20.2135 9.96021C20.1947 9.57247 20.0982 9.14143 19.9746 8.75888C19.8513 8.37694 19.6765 7.96735 19.4595 7.63821L17.7898 8.73921C17.8748 8.86809 17.9819 9.09618 18.0714 9.37353C18.1608 9.65028 18.2082 9.90015 18.2158 10.0569L20.2135 9.96021ZM19.4595 7.63821L17.2383 4.26983L15.5686 5.37083L17.7898 8.73921L19.4595 7.63821ZM17.227 4.25304C16.3931 3.04243 14.7408 2.78165 13.5315 3.57911L14.6325 5.24878C14.9875 5.01465 15.4002 5.12662 15.58 5.38762L17.227 4.25304ZM13.5315 3.57911C12.7171 4.11614 12.4096 5.23553 12.9841 6.10677L14.6538 5.00577C14.6914 5.06278 14.6955 5.12482 14.686 5.16632C14.6767 5.20667 14.6542 5.23445 14.6325 5.24878L13.5315 3.57911ZM12.9841 6.10677L13.162 6.37655L14.8317 5.27555L14.6538 5.00577L12.9841 6.10677ZM14.8317 5.27555C14.0115 4.03164 12.3452 3.7801 11.1399 4.57488L12.2409 6.24455C12.6001 6.00774 12.9988 6.12894 13.162 6.37655L14.8317 5.27555ZM11.1399 4.57488C10.3255 5.1119 10.0181 6.2313 10.5926 7.10253L12.2623 6.00153C12.2999 6.05855 12.304 6.12059 12.2945 6.16208C12.2852 6.20244 12.2627 6.23022 12.2409 6.24455L11.1399 4.57488ZM10.5926 7.10253L10.7705 7.37232L12.4402 6.27132L12.2623 6.00153L10.5926 7.10253ZM12.4402 6.27132C11.6199 5.02741 9.95373 4.77586 8.74844 5.57064L9.84944 7.24031C10.2086 7.00351 10.6072 7.12471 10.7705 7.37232L12.4402 6.27132ZM8.74844 5.57064C7.93404 6.10767 7.62661 7.22707 8.20112 8.0983L9.87079 6.9973C9.90838 7.05431 9.91251 7.11635 9.90295 7.15785C9.89366 7.1982 9.87117 7.22598 9.84944 7.24031L8.74844 5.57064ZM8.20112 8.0983L8.37902 8.36809L10.0487 7.26708L9.87079 6.9973L8.20112 8.0983ZM10.0487 7.26708C9.93456 7.09401 9.7914 6.9154 9.60648 6.76857L8.36282 8.33487C8.34309 8.31921 8.33625 8.31033 8.341 8.31582C8.34574 8.3213 8.35864 8.33718 8.37902 8.36809L10.0487 7.26708ZM9.78375 6.95053L7.2739 3.61442L5.67569 4.8168L8.18554 8.15291L9.78375 6.95053ZM7.2739 3.61442C6.61482 2.73836 5.38545 2.5368 4.48638 3.12966L5.58739 4.79933C5.59474 4.79448 5.60991 4.78862 5.6328 4.79254C5.6545 4.79625 5.6676 4.80604 5.67569 4.8168L7.2739 3.61442ZM4.48638 3.12966C3.55909 3.74112 3.31089 4.98007 3.91761 5.90017L5.58728 4.79917L5.58739 4.79933L4.48638 3.12966ZM3.91761 5.90017L6.11972 9.23967L7.78939 8.13867L5.58728 4.79917L3.91761 5.90017ZM6.11972 9.23967L8.87222 13.4138L10.5419 12.3128L7.78939 8.13867L6.11972 9.23967ZM15.566 8.99988L16.4008 8.44938L15.2998 6.77971L14.465 7.33021L15.566 8.99988ZM15.0155 8.16504L17.2175 11.5044L18.8872 10.4034L16.6852 7.06404L15.0155 8.16504ZM17.5018 10.119L16.667 10.6695L17.768 12.3392L18.6028 11.7887L17.5018 10.119ZM18.0523 10.9539L15.8503 7.61454L14.1807 8.71554L16.3827 12.0549L18.0523 10.9539ZM13.8963 10.1009L14.7312 9.55038L13.6302 7.88071L12.7953 8.43121L13.8963 10.1009ZM13.3458 9.26604L15.5478 12.6054L17.2175 11.5044L15.0155 8.16504L13.3458 9.26604ZM15.8322 11.22L14.9973 11.7705L16.0983 13.4402L16.9332 12.8897L15.8322 11.22ZM16.3827 12.0549L14.1807 8.71554L12.511 9.81654L14.713 13.1559L16.3827 12.0549ZM12.2267 11.2019L13.0615 10.6514L11.9605 8.98171L11.1257 9.53221L12.2267 11.2019ZM11.6762 10.367L13.8782 13.7064L15.5478 12.6054L13.3458 9.26604L11.6762 10.367ZM14.1625 12.321L13.3277 12.8715L14.4287 14.5412L15.2635 13.9907L14.1625 12.321ZM14.713 13.1559L12.511 9.81654L10.8413 10.9175L13.0433 14.2569L14.713 13.1559Z" fill="black" fill-opacity="0.8" mask="url(#path-1-outside-1_9884_301)"/>
</g>
<defs>
<filter id="filter0_d_9884_301" x="0.586426" y="0.791504" width="24.0381" height="22.7505" filterUnits="userSpaceOnUse" color-interpolation-filters="sRGB">
<feFlood flood-opacity="0" result="BackgroundImageFix"/>
<feColorMatrix in="SourceAlpha" type="matrix" values="0 0 0 0 0 0 0 0 0 0 0 0 0 0 0 0 0 0 127 0" result="hardAlpha"/>
<feOffset dy="1"/>
<feGaussianBlur stdDeviation="1.5"/>
<feColorMatrix type="matrix" values="0 0 0 0 0 0 0 0 0 0 0 0 0 0 0 0 0 0 0.2 0"/>
<feBlend mode="normal" in2="BackgroundImageFix" result="effect1_dropShadow_9884_301"/>
<feBlend mode="normal" in="SourceGraphic" in2="effect1_dropShadow_9884_301" result="shape"/>
</filter>
</defs>
</svg>
